<svg xmlns="http://www.w3.org/2000/svg" width="595" height="842" viewBox="0 0 595 842"><rect width="595" height="842" fill="#f4f7fa"/><text x="42" y="42" font-family="sans-serif" font-size="20">设计图文方案册 · 4.2.0</text><rect x="42" y="100" width="511" height="82" rx="8" fill="#eaf1f7"/><text x="58" y="128" font-family="sans-serif" font-size="16">用户给当前方案图文资料</text><text x="58" y="152" font-family="sans-serif" font-size="10">SKILL.md</text><path d="M297 183 v28 l-4 -6 m4 6 l4 -6" fill="none" stroke="#537893"/><rect x="42" y="212" width="511" height="82" rx="8" fill="#eaf1f7"/><text x="58" y="240" font-family="sans-serif" font-size="16">确定设计故事与交付范围</text><text x="58" y="264" font-family="sans-serif" font-size="10">playbook.md</text><path d="M297 295 v28 l-4 -6 m4 6 l4 -6" fill="none" stroke="#537893"/><rect x="42" y="324" width="511" height="82" rx="8" fill="#eaf1f7"/><text x="58" y="352" font-family="sans-serif" font-size="16">组织同版主图和节点说明</text><text x="58" y="376" font-family="sans-serif" font-size="10">playbook/design-facts.md</text><path d="M297 407 v28 l-4 -6 m4 6 l4 -6" fill="none" stroke="#537893"/><rect x="42" y="436" width="511" height="82" rx="8" fill="#eaf1f7"/><text x="58" y="464" font-family="sans-serif" font-size="16">通过正式版式生成图文页面</text><text x="58" y="488" font-family="sans-serif" font-size="10">scripts/run.py</text><path d="M297 519 v28 l-4 -6 m4 6 l4 -6" fill="none" stroke="#537893"/><rect x="42" y="548" width="511" height="82" rx="8" fill="#eaf1f7"/><text x="58" y="576" font-family="sans-serif" font-size="16">制作高清文档与可读预览</text><text x="58" y="600" font-family="sans-serif" font-size="10">data_contract.md</text><path d="M297 631 v28 l-4 -6 m4 6 l4 -6" fill="none" stroke="#537893"/><rect x="42" y="660" width="511" height="82" rx="8" fill="#eaf1f7"/><text x="58" y="688" font-family="sans-serif" font-size="16">用户获得图文方案册</text><text x="58" y="712" font-family="sans-serif" font-size="10">SKILL_MANUAL.pdf</text></svg>