<?xml version="1.0" encoding="UTF-8"?>
<svg xmlns="http://www.w3.org/2000/svg" width="2400" height="1697" viewBox="0 0 2400 1697">
<defs>
  <marker id="arrow" markerWidth="12" markerHeight="12" refX="10" refY="4" orient="auto" markerUnits="strokeWidth"><path d="M0,0 L0,8 L11,4 z" fill="#111"/></marker>
  <style>text{font-family:"Noto Sans CJK SC","Microsoft YaHei","PingFang SC",Arial,sans-serif;letter-spacing:0}</style>
</defs>
<rect width="2400" height="1697" fill="#fff"/>
<text x="42" y="55" font-size="30" font-weight="800">百恩得平台 · 素材流入与私有交付 / 能力总览</text>
<text x="42" y="91" font-size="17" fill="#333">版本 3.0.1</text>
<line x1="42" y1="112" x2="2358" y2="112" stroke="#111" stroke-width="2"/>
<g><polyline points="1030,370 1270,375" fill="none" stroke="#111" stroke-width="2.2" marker-end="url(#arrow)"/><rect x="1105" y="329.5" width="90" height="31" rx="3" fill="#fff" fill-opacity="0.94"/><text x="1150" y="351.12" text-anchor="middle" font-size="18" font-weight="600" fill="#111"><tspan x="1150" dy="0">访问身份</tspan></text></g><g><polyline points="1270,375 1150,375 1150,700 550,700 550,820" fill="none" stroke="#111" stroke-width="2.2" marker-end="url(#arrow)"/><rect x="814" y="657" width="72" height="31" rx="3" fill="#fff" fill-opacity="0.94"/><text x="850" y="678.62" text-anchor="middle" font-size="18" font-weight="600" fill="#111"><tspan x="850" dy="0">否</tspan></text></g><g><polyline points="1795,550 1795,740" fill="none" stroke="#111" stroke-width="2.2" marker-end="url(#arrow)"/><rect x="1807" y="629.5" width="72" height="31" rx="3" fill="#fff" fill-opacity="0.94"/><text x="1843" y="651.12" text-anchor="middle" font-size="18" font-weight="600" fill="#111"><tspan x="1843" dy="0">是</tspan></text></g><g><polyline points="1795,1150 1795,1300" fill="none" stroke="#111" stroke-width="2.2" marker-end="url(#arrow)"/><rect x="1807" y="1209.5" width="72" height="31" rx="3" fill="#fff" fill-opacity="0.94"/><text x="1843" y="1231.12" text-anchor="middle" font-size="18" font-weight="600" fill="#111"><tspan x="1843" dy="0">上传</tspan></text></g><g><polyline points="1270,945 1150,945 1150,1210 550,1210 550,1300" fill="none" stroke="#111" stroke-width="2.2" marker-end="url(#arrow)"/><rect x="800.32" y="1167" width="99.36" height="31" rx="3" fill="#fff" fill-opacity="0.94"/><text x="850" y="1188.62" text-anchor="middle" font-size="18" font-weight="600" fill="#111"><tspan x="850" dy="0">查询/下载</tspan></text></g><g><polygon points="96,220 1030,220 1004,520 70,520" fill="#fff" stroke="#111" stroke-width="2"/><text x="550" y="332.8" text-anchor="middle" font-size="25" font-weight="700" fill="#111"><tspan x="550" dy="0">其它 Skill 的资产/交付请求</tspan></text><text x="106" y="368.40000000000003" text-anchor="start" font-size="22" font-weight="430" fill="#111"><tspan x="106" dy="0">Key 只在本平台 Skill；不放 HTML/PDF</tspan><tspan x="106" dy="28.6"></tspan><tspan x="106" dy="28.6">scripts/run.py：平台唯一命令入口</tspan></text></g><g><polygon points="1795,200 2320,375 1795,550 1270,375" fill="#eff6ff" stroke="#21658e" stroke-width="4"/><text x="1795" y="325.15" text-anchor="middle" font-size="19.5" font-weight="700" fill="#111"><tspan x="1795" dy="0">本机受管身份可访问？</tspan></text><text x="1480" y="353.59999999999997" text-anchor="start" font-size="16.5" font-weight="430" fill="#111"><tspan x="1480" dy="0">profile 实测；只用真实权限与 HTTPS</tspan><tspan x="1480" dy="21.45"></tspan><tspan x="1480" dy="21.45">playbook.md：平台操作授权与步骤</tspan><tspan x="1480" dy="21.45">local_runtime.md：本机私有 Key、HTTPS、本地网络和字段合同</tspan><tspan x="1480" dy="21.45">IDENTITY · 身份、网络与授权 · 第 3 页</tspan></text></g><g><rect x="70" y="820" width="960" height="260" rx="5" fill="#f1f1f1" stroke="#111" stroke-width="2"/><text x="550" y="912.8" text-anchor="middle" font-size="25" font-weight="700" fill="#111"><tspan x="550" dy="0">否：报告凭据/权限/服务故障</tspan></text><text x="90" y="948.4" text-anchor="start" font-size="22" font-weight="430" fill="#111"><tspan x="90" dy="0">不输出 Key 或完整鉴权异常</tspan><tspan x="90" dy="28.6"></tspan><tspan x="90" dy="28.6">scripts/platform_bridge.py：实际白名单 API、下载、绑定和回读</tspan></text></g><g><polygon points="1795,740 2320,945 1795,1150 1270,945" fill="#fff" stroke="#111" stroke-width="2"/><text x="1795" y="893.5" text-anchor="middle" font-size="25" font-weight="700" fill="#111"><tspan x="1795" dy="0">读资产还是推送成果？</tspan></text><text x="1480" y="929.1" text-anchor="start" font-size="22" font-weight="430" fill="#111"><tspan x="1480" dy="0">当前只支持私有项目；不是社区公开发布</tspan><tspan x="1480" dy="28.6"></tspan><tspan x="1480" dy="28.6">scripts/platform_bridge.py：实际白名单 API、下载、</tspan><tspan x="1480" dy="28.6">绑定和回读</tspan></text></g><g><rect x="70" y="1300" width="960" height="280" rx="5" fill="#eff6ff" stroke="#21658e" stroke-width="4"/><text x="550" y="1388.5" text-anchor="middle" font-size="25" font-weight="700" fill="#111"><tspan x="550" dy="0">资产总览 → 条目 → 下载</tspan></text><text x="90" y="1424.1" text-anchor="start" font-size="22" font-weight="430" fill="#111"><tspan x="90" dy="0">用户选定素材，真实链接下载本机</tspan><tspan x="90" dy="28.6"></tspan><tspan x="90" dy="28.6">scripts/platform_bridge.py：实际白名单 API、下载、绑定和回读</tspan><tspan x="90" dy="28.6">DOWNLOAD · 真实资产下载 · 第 4 页</tspan></text></g><g><rect x="1270" y="1300" width="1050" height="280" rx="5" fill="#eff6ff" stroke="#21658e" stroke-width="4"/><text x="1795" y="1388.5" text-anchor="middle" font-size="25" font-weight="700" fill="#111"><tspan x="1795" dy="0">唯一项目 → 上传 → 回读</tspan></text><text x="1290" y="1424.1" text-anchor="start" font-size="22" font-weight="430" fill="#111"><tspan x="1290" dy="0">按 HTML/媒体合同；没有授权仅 dry-run</tspan><tspan x="1290" dy="28.6"></tspan><tspan x="1290" dy="28.6">scripts/platform_bridge.py：实际白名单 API、下载、绑定和回读</tspan><tspan x="1290" dy="28.6">UPLOAD · HTML/媒体分流与回读 · 第 5 页</tspan></text></g>
<line x1="42" y1="1660" x2="2358" y2="1660" stroke="#aaa" stroke-width="1"/>
<text x="42" y="1682" font-size="12.5" fill="#555">当前实现：图内列明执行逻辑、对应文件与用途。</text>
<text x="2358" y="1682" text-anchor="end" font-size="12.5" fill="#555">1 / 1</text>
</svg>